<?xml version="1.0" encoding="UTF-8"?>
<svg xmlns="http://www.w3.org/2000/svg" width="128" height="128" viewBox="0 0 128 128">
  <title>Cellar (Development)</title>
  <defs>
    <linearGradient id="paper" x1="64" y1="24" x2="64" y2="112" gradientUnits="userSpaceOnUse">
      <stop offset="0" stop-color="#3d3846"/>
      <stop offset="1" stop-color="#241f31"/>
    </linearGradient>
    <linearGradient id="bar" x1="64" y1="24" x2="64" y2="40" gradientUnits="userSpaceOnUse">
      <stop offset="0" stop-color="#ff7800"/>
      <stop offset="1" stop-color="#e66100"/>
    </linearGradient>
    <clipPath id="sheet">
      <rect x="16" y="24" width="96" height="88" rx="12"/>
    </clipPath>
  </defs>

  <rect x="16" y="24" width="96" height="88" rx="12" fill="url(#paper)"/>

  <g clip-path="url(#sheet)">
    <g fill="#5e5c64">
      <rect x="16" y="63" width="96" height="2"/>
      <rect x="16" y="87" width="96" height="2"/>
      <rect x="47" y="40" width="2" height="72"/>
      <rect x="79" y="40" width="2" height="72"/>
    </g>

    <rect x="49" y="65" width="30" height="22" fill="#ffbe6f" fill-opacity="0.22"/>

    <rect x="16" y="24" width="96" height="16" fill="url(#bar)"/>
    <g fill="#ffffff" fill-opacity="0.3">
      <rect x="47" y="24" width="2" height="16"/>
      <rect x="79" y="24" width="2" height="16"/>
      <rect x="16" y="24" width="96" height="1.5"/>
    </g>
  </g>

  <g fill="none" stroke="#ffbe6f" stroke-width="8" stroke-linecap="round">
    <path d="M40 56C30 66 30 86 40 96"/>
    <path d="M88 56C98 66 98 86 88 96"/>
  </g>
  <circle cx="64" cy="76" r="6" fill="#ffbe6f"/>

  <rect x="17" y="25" width="94" height="86" rx="11" fill="none" stroke="#000000" stroke-opacity="0.25" stroke-width="2"/>
</svg>
